<mxfile host="app.diagrams.net" modified="2023-12-28T14:14:02.470Z" agent="Mozilla/5.0 (Windows NT 10.0; Win64; x64) AppleWebKit/537.36 (KHTML, like Gecko) Chrome/120.0.0.0 Safari/537.36 Edg/120.0.0.0" etag="FxKvYkoHn44qzTSBQqK6" version="22.1.15" type="github">
  <diagram name="第 1 页" id="QMoBIEhTlOHUZoNhQho8">
    <mxGraphModel dx="1282" dy="535" grid="1" gridSize="10" guides="1" tooltips="1" connect="1" arrows="1" fold="1" page="1" pageScale="1" pageWidth="827" pageHeight="1169" math="0" shadow="0">
      <root>
        <mxCell id="0" />
        <mxCell id="1" parent="0" />
        <mxCell id="cC4sbT0NsKGDklfkXVwA-1" value="訂餐者" style="shape=umlActor;verticalLabelPosition=bottom;verticalAlign=top;html=1;outlineConnect=0;fillColor=none;strokeColor=#b85450;" parent="1" vertex="1">
          <mxGeometry x="10" y="100" width="30" height="60" as="geometry" />
        </mxCell>
        <mxCell id="cC4sbT0NsKGDklfkXVwA-2" value="商家" style="shape=umlActor;verticalLabelPosition=bottom;verticalAlign=top;html=1;outlineConnect=0;fillColor=none;strokeColor=#b85450;" parent="1" vertex="1">
          <mxGeometry x="140" y="100" width="30" height="60" as="geometry" />
        </mxCell>
        <mxCell id="cC4sbT0NsKGDklfkXVwA-3" value="店鋪管理員" style="shape=umlActor;verticalLabelPosition=bottom;verticalAlign=top;html=1;outlineConnect=0;fillColor=none;strokeColor=#b85450;" parent="1" vertex="1">
          <mxGeometry x="230" y="100" width="30" height="60" as="geometry" />
        </mxCell>
        <mxCell id="cC4sbT0NsKGDklfkXVwA-4" value="訂單管理員" style="shape=umlActor;verticalLabelPosition=bottom;verticalAlign=top;html=1;outlineConnect=0;fillColor=none;strokeColor=#b85450;" parent="1" vertex="1">
          <mxGeometry x="320" y="100" width="30" height="60" as="geometry" />
        </mxCell>
        <mxCell id="cC4sbT0NsKGDklfkXVwA-5" value="系統管理員" style="shape=umlActor;verticalLabelPosition=bottom;verticalAlign=top;html=1;outlineConnect=0;fillColor=none;strokeColor=#b85450;" parent="1" vertex="1">
          <mxGeometry x="413.5" y="100" width="30" height="60" as="geometry" />
        </mxCell>
      </root>
    </mxGraphModel>
  </diagram>
</mxfile>
